<?xml version="1.0" encoding="utf-8"?>
<svg viewBox="0 0 32 32" xmlns="http://www.w3.org/2000/svg">
  <defs>
    <style>.cls-1{fill:#dcdbdd;}.cls-2{fill:#cc4e51;}</style>
  </defs>
  <path class="cls-1" d="M 5 16.76 L 5 15.24 C 5.231 15.237 5.46 15.2 5.68 15.13 C 5.839 15.079 5.988 15.002 6.12 14.9 C 6.226 14.813 6.311 14.704 6.37 14.58 C 6.426 14.469 6.467 14.352 6.49 14.23 C 6.499 14.107 6.499 13.983 6.49 13.86 C 6.49 13.713 6.49 13.56 6.49 13.4 C 6.49 13.24 6.49 13.037 6.49 12.79 L 6.49 12.29 C 6.41 11.537 6.37 11.007 6.37 10.7 C 6.323 9.947 6.616 9.213 7.17 8.7 C 7.791 8.224 8.558 7.977 9.34 8 L 10 8 L 10 9.7 L 9.68 9.7 C 9.327 9.673 8.98 9.81 8.74 10.07 C 8.528 10.377 8.426 10.747 8.45 11.12 C 8.458 11.505 8.492 11.889 8.55 12.27 C 8.617 12.937 8.65 13.397 8.65 13.65 C 8.663 13.986 8.629 14.323 8.55 14.65 C 8.491 14.898 8.378 15.13 8.22 15.33 C 8.07 15.508 7.887 15.654 7.68 15.76 C 7.446 15.876 7.197 15.96 6.94 16.01 C 7.196 16.057 7.445 16.138 7.68 16.25 C 7.888 16.355 8.071 16.501 8.22 16.68 C 8.378 16.88 8.491 17.112 8.55 17.36 C 8.629 17.687 8.662 18.024 8.65 18.36 C 8.65 18.593 8.617 19.06 8.55 19.76 C 8.491 20.134 8.457 20.511 8.45 20.89 C 8.423 21.268 8.521 21.644 8.73 21.96 C 8.968 22.225 9.315 22.366 9.67 22.34 L 10 22.34 L 10 24 L 9.32 24 C 7.32 24 6.32 23.09 6.32 21.27 C 6.32 20.963 6.36 20.433 6.44 19.68 L 6.44 19.19 C 6.44 18.95 6.44 18.75 6.44 18.59 C 6.44 18.43 6.44 18.27 6.44 18.13 C 6.449 18.01 6.449 17.89 6.44 17.77 C 6.42 17.649 6.383 17.531 6.33 17.42 C 6.272 17.296 6.186 17.187 6.08 17.1 C 5.945 16.996 5.793 16.919 5.63 16.87 C 5.426 16.806 5.214 16.769 5 16.76 Z"/>
  <path class="cls-1" d="M 26.35 16.87 C 26.187 16.919 26.035 16.996 25.9 17.1 C 25.794 17.187 25.708 17.296 25.65 17.42 C 25.597 17.531 25.56 17.649 25.54 17.77 C 25.531 17.89 25.531 18.01 25.54 18.13 C 25.54 18.28 25.54 18.44 25.54 18.59 C 25.54 18.74 25.54 18.95 25.54 19.19 L 25.54 19.68 C 25.62 20.433 25.66 20.963 25.66 21.27 C 25.66 23.09 24.66 24 22.66 24 L 22 24 L 22 22.32 L 22.36 22.32 C 22.715 22.346 23.062 22.205 23.3 21.94 C 23.509 21.624 23.607 21.248 23.58 20.87 C 23.573 20.491 23.539 20.114 23.48 19.74 C 23.413 19.04 23.38 18.573 23.38 18.34 C 23.368 18.004 23.401 17.667 23.48 17.34 C 23.539 17.092 23.652 16.86 23.81 16.66 C 23.959 16.481 24.142 16.335 24.35 16.23 C 24.589 16.12 24.841 16.043 25.1 16 C 24.843 15.95 24.594 15.866 24.36 15.75 C 24.153 15.644 23.97 15.498 23.82 15.32 C 23.662 15.12 23.549 14.888 23.49 14.64 C 23.411 14.313 23.377 13.976 23.39 13.64 C 23.39 13.387 23.423 12.927 23.49 12.26 C 23.548 11.879 23.582 11.495 23.59 11.11 C 23.614 10.737 23.512 10.367 23.3 10.06 C 23.06 9.8 22.713 9.663 22.36 9.69 L 22 9.69 L 22 8 L 22.7 8 C 23.502 7.952 24.296 8.189 24.94 8.67 C 25.494 9.183 25.787 9.917 25.74 10.67 C 25.74 10.977 25.7 11.507 25.62 12.26 L 25.62 12.76 C 25.62 13.007 25.62 13.21 25.62 13.37 C 25.62 13.53 25.62 13.683 25.62 13.83 C 25.611 13.953 25.611 14.077 25.62 14.2 C 25.643 14.322 25.684 14.439 25.74 14.55 C 25.799 14.674 25.884 14.783 25.99 14.87 C 26.122 14.972 26.271 15.049 26.43 15.1 C 26.65 15.17 26.879 15.207 27.11 15.21 L 27.11 16.73 C 26.851 16.736 26.594 16.783 26.35 16.87 Z"/>
  <g transform="matrix(0.28088, 0, 0, 0.28088, 5.860188, 2.644097)" style="">
    <path id="XMLID_21_" class="st0" d="M 25.4 14.3 L 46.8 26.7 L 46.8 51.4 L 25.4 39 L 25.4 14.3 Z" style="fill: rgb(117, 72, 235); stroke-miterlimit: 10; vector-effect: non-scaling-stroke; stroke: rgb(0, 0, 0); stroke-width: 0px;"/>
    <path id="XMLID_18_" class="st0" d="M 25.4 43.7 L 46.8 56 L 46.8 80.8 L 25.4 68.4 L 25.4 43.7 Z" style="fill: rgb(117, 72, 235); stroke-miterlimit: 10; vector-effect: non-scaling-stroke; stroke: rgb(0, 0, 0); stroke-width: 0px;"/>
  </g>
</svg>